# xmcd
# Copyright (C) 1995-1998 Ti Kan
#
# Track frame offsets:
#       150
#       17256
#       33664
#       49127
#       65056
#       82790
#       102277
#       116842
#       147681
#       161327
#       178512
#       201209
#       223219
#       243426
#
# Disc length: 3592 seconds
#
# Revision: 0
# Processed by: cddbd v1.5.2PL0 Copyright (c) Steve Scherf et al.
# Submitted via: CD-Import v1.0
#
DISCID=c70e060e
DTITLE=Filewile - Blueskywell
DYEAR=2009
DGENRE=
TTITLE0=Sombrero Or Die
TTITLE1=Number One Kid
TTITLE2=Kick The Spacedrum
TTITLE3=Radiotower
TTITLE4=Bug
TTITLE5=Blueskywell
TTITLE6=Robibot
TTITLE7=One Space Town
TTITLE8=The Cave
TTITLE9=King Of The World
TTITLE10=Iron Lady
TTITLE11=Balaton Soupdrink
TTITLE12=Swahee Swahoo
TTITLE13=Codeine
EXTD=
EXTT0=
EXTT1=
EXTT2=
EXTT3=
EXTT4=
EXTT5=
EXTT6=
EXTT7=
EXTT8=
EXTT9=
EXTT10=
EXTT11=
EXTT12=
EXTT13=
PLAYORDER=
